<svg width="152" height="152" viewBox="0 0 152 152" fill="none" xmlns="http://www.w3.org/2000/svg">
<rect x="0.250496" y="0.499023" width="151.499" height="151.499" rx="17" fill="url(#paint0_linear_1_7115)"/>
<rect x="0.250496" y="0.499023" width="151.499" height="151.499" rx="17" fill="white"/>
<path d="M67.4775 100.559L61.2959 97.4515C59.5954 96.5967 58.5326 94.8972 58.5366 92.9947C58.5448 91.5077 58.5689 89.5652 58.6287 87.3274L42.7264 92.5907C41.4338 93.0185 40.0025 92.7251 38.9831 91.8117C37.9637 90.8984 37.521 89.5106 37.8142 88.1794L41.3026 72.2656C42.1671 68.3272 45.0326 65.1441 48.8504 63.8805L61.2205 59.7862C61.3822 59.0656 61.5589 58.3901 61.7406 57.7296C68.041 35.4983 86.1793 28.8279 97.7881 27.2203C99.6361 26.9589 101.442 27.8789 102.349 29.513C107.99 39.8036 113.438 58.3298 99.3706 76.6444C98.9639 77.1793 98.5121 77.729 98.0303 78.2888L102.125 90.6589C103.388 94.4766 102.548 98.6905 99.8982 101.719L89.2079 114.013C88.3146 115.042 86.9367 115.515 85.5955 115.242C84.2543 114.968 83.1699 114.01 82.7371 112.702L77.4041 96.5894C75.5286 98.0274 73.8788 99.2405 72.6302 100.154C71.1259 101.252 69.1379 101.393 67.4625 100.564L67.4775 100.559ZM90.8666 56.6448C92.4611 56.117 93.7807 54.9775 94.5351 53.4768C95.2894 51.9761 95.4167 50.2372 94.8889 48.6427C94.3611 47.0481 93.2216 45.7285 91.7209 44.9742C90.2202 44.2199 88.4813 44.0926 86.8868 44.6204C85.2922 45.1481 83.9727 46.2877 83.2183 47.7884C82.464 49.2891 82.3367 51.028 82.8645 52.6225C83.3922 54.217 84.5318 55.5366 86.0325 56.2909C87.5332 57.0453 89.2721 57.1726 90.8666 56.6448Z" fill="white"/>
<path d="M67.4775 100.559L61.2959 97.4515C59.5954 96.5967 58.5326 94.8972 58.5366 92.9947C58.5448 91.5077 58.5689 89.5652 58.6287 87.3274L42.7264 92.5907C41.4338 93.0185 40.0025 92.7251 38.9831 91.8117C37.9637 90.8984 37.521 89.5106 37.8142 88.1794L41.3026 72.2656C42.1671 68.3272 45.0326 65.1441 48.8504 63.8805L61.2205 59.7862C61.3822 59.0656 61.5589 58.3901 61.7406 57.7296C68.041 35.4983 86.1793 28.8279 97.7881 27.2203C99.6361 26.9589 101.442 27.8789 102.349 29.513C107.99 39.8036 113.438 58.3298 99.3706 76.6444C98.9639 77.1793 98.5121 77.729 98.0303 78.2888L102.125 90.6589C103.388 94.4766 102.548 98.6905 99.8982 101.719L89.2079 114.013C88.3146 115.042 86.9367 115.515 85.5955 115.242C84.2543 114.968 83.1699 114.01 82.7371 112.702L77.4041 96.5894C75.5286 98.0274 73.8788 99.2405 72.6302 100.154C71.1259 101.252 69.1379 101.393 67.4625 100.564L67.4775 100.559ZM90.8666 56.6448C92.4611 56.117 93.7807 54.9775 94.5351 53.4768C95.2894 51.9761 95.4167 50.2372 94.8889 48.6427C94.3611 47.0481 93.2216 45.7285 91.7209 44.9742C90.2202 44.2199 88.4813 44.0926 86.8868 44.6204C85.2922 45.1481 83.9727 46.2877 83.2183 47.7884C82.464 49.2891 82.3367 51.028 82.8645 52.6225C83.3922 54.217 84.5318 55.5366 86.0325 56.2909C87.5332 57.0453 89.2721 57.1726 90.8666 56.6448Z" fill="url(#paint1_linear_1_7115)"/>
<defs>
<linearGradient id="paint0_linear_1_7115" x1="76" y1="0.499023" x2="76" y2="151.998" gradientUnits="userSpaceOnUse">
<stop stop-color="#F12B2B"/>
<stop offset="1" stop-color="#822BF1"/>
</linearGradient>
<linearGradient id="paint1_linear_1_7115" x1="63.2635" y1="37.7674" x2="88.7364" y2="114.73" gradientUnits="userSpaceOnUse">
<stop stop-color="#F12B2B"/>
<stop offset="1" stop-color="#822BF1"/>
</linearGradient>
</defs>
</svg>
