<svg xmlns="http://www.w3.org/2000/svg" width="34" height="34" viewBox="0 0 34 34" fill="none">
                <path d="M29.25 15.25H4.75M29.25 15.25C31.183 15.25 32.75 16.817 32.75 18.75V29.25C32.75 31.183 31.183 32.75 29.25 32.75H4.75C2.817 32.75 1.25 31.183 1.25 29.25V18.75C1.25 16.817 2.817 15.25 4.75 15.25M29.25 15.25V11.75C29.25 9.817 27.683 8.25 25.75 8.25M4.75 15.25V11.75C4.75 9.817 6.317 8.25 8.25 8.25M8.25 8.25V4.75C8.25 2.817 9.817 1.25 11.75 1.25H22.25C24.183 1.25 25.75 2.817 25.75 4.75V8.25M8.25 8.25H25.75" stroke="white" stroke-width="2" stroke-linecap="round" stroke-linejoin="round" />
            </svg> 