<svg width="497" height="120" viewBox="0 0 497 120" fill="none" xmlns="http://www.w3.org/2000/svg">
<rect x="2" y="17.5" width="85" height="85" rx="15" fill="url(#paint0_linear_1_7157)"/>
<rect x="2" y="17.5" width="85" height="85" rx="15" fill="#0B0B0B"/>
<rect x="2" y="17.5" width="85" height="85" rx="15" stroke="url(#paint1_linear_1_7157)" stroke-width="4"/>
<path d="M39.4934 74.2813L35.8619 72.4559C34.8629 71.9538 34.2386 70.9554 34.2409 69.8378C34.2457 68.9642 34.2599 67.8231 34.2951 66.5084L24.9531 69.6004C24.1937 69.8518 23.3529 69.6794 22.754 69.1428C22.1551 68.6062 21.8951 67.791 22.0673 67.009L24.1166 57.6602C24.6244 55.3465 26.3078 53.4765 28.5506 52.7342L35.8176 50.329C35.9126 49.9057 36.0164 49.5088 36.1231 49.1208C39.8244 36.0608 50.48 32.1421 57.2997 31.1977C58.3854 31.0442 59.446 31.5847 59.9793 32.5446C63.293 38.59 66.4935 49.4734 58.2294 60.2326C57.9905 60.5468 57.7251 60.8697 57.442 61.1986L59.8472 68.4656C60.5896 70.7083 60.0961 73.1838 58.5393 74.9629L52.2592 82.185C51.7344 82.7898 50.9249 83.0675 50.137 82.907C49.3491 82.7465 48.7121 82.1834 48.4578 81.4152L45.3249 71.9495C44.2231 72.7943 43.2539 73.5069 42.5204 74.0436C41.6367 74.6888 40.4688 74.7716 39.4845 74.2842L39.4934 74.2813ZM53.2336 48.4835C54.1703 48.1735 54.9455 47.504 55.3887 46.6224C55.8318 45.7408 55.9066 44.7193 55.5966 43.7826C55.2865 42.8459 54.6171 42.0707 53.7355 41.6275C52.8539 41.1844 51.8323 41.1096 50.8956 41.4196C49.9589 41.7297 49.1837 42.3991 48.7405 43.2807C48.2974 44.1623 48.2226 45.1839 48.5326 46.1206C48.8427 47.0573 49.5121 47.8325 50.3937 48.2757C51.2753 48.7188 52.2969 48.7936 53.2336 48.4835Z" fill="white"/>
<path d="M39.4934 74.2813L35.8619 72.4559C34.8629 71.9538 34.2386 70.9554 34.2409 69.8378C34.2457 68.9642 34.2599 67.8231 34.2951 66.5084L24.9531 69.6004C24.1937 69.8518 23.3529 69.6794 22.754 69.1428C22.1551 68.6062 21.8951 67.791 22.0673 67.009L24.1166 57.6602C24.6244 55.3465 26.3078 53.4765 28.5506 52.7342L35.8176 50.329C35.9126 49.9057 36.0164 49.5088 36.1231 49.1208C39.8244 36.0608 50.48 32.1421 57.2997 31.1977C58.3854 31.0442 59.446 31.5847 59.9793 32.5446C63.293 38.59 66.4935 49.4734 58.2294 60.2326C57.9905 60.5468 57.7251 60.8697 57.442 61.1986L59.8472 68.4656C60.5896 70.7083 60.0961 73.1838 58.5393 74.9629L52.2592 82.185C51.7344 82.7898 50.9249 83.0675 50.137 82.907C49.3491 82.7465 48.7121 82.1834 48.4578 81.4152L45.3249 71.9495C44.2231 72.7943 43.2539 73.5069 42.5204 74.0436C41.6367 74.6888 40.4688 74.7716 39.4845 74.2842L39.4934 74.2813ZM53.2336 48.4835C54.1703 48.1735 54.9455 47.504 55.3887 46.6224C55.8318 45.7408 55.9066 44.7193 55.5966 43.7826C55.2865 42.8459 54.6171 42.0707 53.7355 41.6275C52.8539 41.1844 51.8323 41.1096 50.8956 41.4196C49.9589 41.7297 49.1837 42.3991 48.7405 43.2807C48.2974 44.1623 48.2226 45.1839 48.5326 46.1206C48.8427 47.0573 49.5121 47.8325 50.3937 48.2757C51.2753 48.7188 52.2969 48.7936 53.2336 48.4835Z" fill="url(#paint2_linear_1_7157)"/>
<path d="M144.52 31.84V42.8H121.64V54.64H138.76V65.28H121.64V88H107.96V31.84H144.52ZM186.67 31.84V42.8H163.79V54.64H180.91V65.28H163.79V88H150.11V31.84H186.67ZM242.5 88H228.82L205.94 53.36V88H192.26V31.84H205.94L228.82 66.64V31.84H242.5V88ZM277.376 88.56C272.096 88.56 267.243 87.3333 262.816 84.88C258.443 82.4267 254.95 79.0133 252.336 74.64C249.776 70.2133 248.496 65.2533 248.496 59.76C248.496 54.2667 249.776 49.3333 252.336 44.96C254.95 40.5867 258.443 37.1733 262.816 34.72C267.243 32.2667 272.096 31.04 277.376 31.04C282.656 31.04 287.483 32.2667 291.856 34.72C296.283 37.1733 299.75 40.5867 302.256 44.96C304.816 49.3333 306.096 54.2667 306.096 59.76C306.096 65.2533 304.816 70.2133 302.256 74.64C299.696 79.0133 296.23 82.4267 291.856 84.88C287.483 87.3333 282.656 88.56 277.376 88.56ZM277.376 76.08C281.856 76.08 285.43 74.5867 288.096 71.6C290.816 68.6133 292.176 64.6667 292.176 59.76C292.176 54.8 290.816 50.8533 288.096 47.92C285.43 44.9333 281.856 43.44 277.376 43.44C272.843 43.44 269.216 44.9067 266.496 47.84C263.83 50.7733 262.496 54.7467 262.496 59.76C262.496 64.72 263.83 68.6933 266.496 71.68C269.216 74.6133 272.843 76.08 277.376 76.08ZM333.147 31.84C339.067 31.84 344.24 33.0133 348.667 35.36C353.094 37.7067 356.507 41.0133 358.907 45.28C361.36 49.4933 362.587 54.3733 362.587 59.92C362.587 65.4133 361.36 70.2933 358.907 74.56C356.507 78.8267 353.067 82.1333 348.587 84.48C344.16 86.8267 339.014 88 333.147 88H312.107V31.84H333.147ZM332.267 76.16C337.44 76.16 341.467 74.7467 344.347 71.92C347.227 69.0933 348.667 65.0933 348.667 59.92C348.667 54.7467 347.227 50.72 344.347 47.84C341.467 44.96 337.44 43.52 332.267 43.52H325.787V76.16H332.267ZM382.312 42.8V54.16H400.632V64.72H382.312V77.04H403.032V88H368.632V31.84H403.032V42.8H382.312ZM430.633 88.56C426.526 88.56 422.846 87.8933 419.593 86.56C416.34 85.2267 413.726 83.2533 411.753 80.64C409.833 78.0267 408.82 74.88 408.713 71.2H423.273C423.486 73.28 424.206 74.88 425.433 76C426.66 77.0667 428.26 77.6 430.233 77.6C432.26 77.6 433.86 77.1467 435.033 76.24C436.206 75.28 436.793 73.9733 436.793 72.32C436.793 70.9333 436.313 69.7867 435.353 68.88C434.446 67.9733 433.3 67.2267 431.913 66.64C430.58 66.0533 428.66 65.3867 426.153 64.64C422.526 63.52 419.566 62.4 417.273 61.28C414.98 60.16 413.006 58.5067 411.353 56.32C409.7 54.1333 408.873 51.28 408.873 47.76C408.873 42.5333 410.766 38.4533 414.553 35.52C418.34 32.5333 423.273 31.04 429.353 31.04C435.54 31.04 440.526 32.5333 444.313 35.52C448.1 38.4533 450.126 42.56 450.393 47.84H435.593C435.486 46.0267 434.82 44.6133 433.593 43.6C432.366 42.5333 430.793 42 428.873 42C427.22 42 425.886 42.4533 424.873 43.36C423.86 44.2133 423.353 45.4667 423.353 47.12C423.353 48.9333 424.206 50.3467 425.913 51.36C427.62 52.3733 430.286 53.4667 433.913 54.64C437.54 55.8667 440.473 57.04 442.713 58.16C445.006 59.28 446.98 60.9067 448.633 63.04C450.286 65.1733 451.113 67.92 451.113 71.28C451.113 74.48 450.286 77.3867 448.633 80C447.033 82.6133 444.686 84.6933 441.593 86.24C438.5 87.7867 434.846 88.56 430.633 88.56Z" fill="white"/>
<defs>
<linearGradient id="paint0_linear_1_7157" x1="44.5" y1="15.5" x2="44.5" y2="104.5" gradientUnits="userSpaceOnUse">
<stop stop-color="#F12B2B"/>
<stop offset="1" stop-color="#822BF1"/>
</linearGradient>
<linearGradient id="paint1_linear_1_7157" x1="44.5" y1="15.5" x2="44.5" y2="104.5" gradientUnits="userSpaceOnUse">
<stop stop-color="#F12B2B"/>
<stop offset="1" stop-color="#822BF1"/>
</linearGradient>
<linearGradient id="paint2_linear_1_7157" x1="37.0178" y1="37.3938" x2="51.9822" y2="82.6062" gradientUnits="userSpaceOnUse">
<stop stop-color="#F12B2B"/>
<stop offset="1" stop-color="#822BF1"/>
</linearGradient>
</defs>
</svg>
