<svg xmlns="http://www.w3.org/2000/svg" width="38" height="38" viewBox="0 0 38 38" fill="none">
  <path d="M19 24.6224C21.8995 24.6224 24.25 22.2719 24.25 19.3724C24.25 16.4729 21.8995 14.1224 19 14.1224C16.1005 14.1224 13.75 16.4729 13.75 19.3724C13.75 22.2719 16.1005 24.6224 19 24.6224Z" stroke="white" stroke-width="2" stroke-linecap="round" stroke-linejoin="round"/>
  <path d="M30.7727 24.1452C30.561 24.625 30.4978 25.1573 30.5914 25.6734C30.6849 26.1895 30.931 26.6657 31.2977 27.0406L31.3932 27.1361C31.689 27.4316 31.9237 27.7825 32.0838 28.1688C32.244 28.555 32.3264 28.9691 32.3264 29.3872C32.3264 29.8054 32.244 30.2194 32.0838 30.6057C31.9237 30.9919 31.689 31.3428 31.3932 31.6383C31.0977 31.9342 30.7468 32.1689 30.3605 32.329C29.9742 32.4891 29.5602 32.5715 29.142 32.5715C28.7239 32.5715 28.3099 32.4891 27.9236 32.329C27.5373 32.1689 27.1864 31.9342 26.8909 31.6383L26.7955 31.5429C26.4205 31.1761 25.9443 30.9301 25.4282 30.8365C24.9121 30.7429 24.3798 30.8061 23.9 31.0179C23.4295 31.2196 23.0282 31.5544 22.7455 31.9812C22.4628 32.4081 22.3111 32.9082 22.3091 33.4202V33.6906C22.3091 34.5345 21.9739 35.3438 21.3772 35.9405C20.7805 36.5372 19.9711 36.8724 19.1273 36.8724C18.2834 36.8724 17.4741 36.5372 16.8774 35.9405C16.2807 35.3438 15.9455 34.5345 15.9455 33.6906V33.5474C15.9331 33.0209 15.7627 32.5102 15.4563 32.0817C15.1498 31.6533 14.7216 31.327 14.2273 31.1452C13.7474 30.9334 13.2151 30.8702 12.6991 30.9638C12.183 31.0574 11.7068 31.3034 11.3318 31.6702L11.2364 31.7656C10.9409 32.0615 10.5899 32.2961 10.2037 32.4563C9.81741 32.6164 9.40337 32.6988 8.98523 32.6988C8.56709 32.6988 8.15305 32.6164 7.76678 32.4563C7.38051 32.2961 7.0296 32.0615 6.73409 31.7656C6.43826 31.4701 6.20357 31.1192 6.04345 30.7329C5.88332 30.3467 5.80091 29.9326 5.80091 29.5145C5.80091 29.0963 5.88332 28.6823 6.04345 28.296C6.20357 27.9098 6.43826 27.5589 6.73409 27.2633L6.82955 27.1679C7.19631 26.7929 7.44234 26.3167 7.53592 25.8006C7.62949 25.2846 7.56632 24.7523 7.35455 24.2724C7.15288 23.8019 6.81802 23.4006 6.3912 23.1179C5.96437 22.8353 5.46421 22.6836 4.95227 22.6815H4.68182C3.83795 22.6815 3.02864 22.3463 2.43193 21.7496C1.83523 21.1529 1.5 20.3436 1.5 19.4997C1.5 18.6558 1.83523 17.8465 2.43193 17.2498C3.02864 16.6531 3.83795 16.3179 4.68182 16.3179H4.825C5.35158 16.3056 5.86228 16.1351 6.2907 15.8287C6.71913 15.5223 7.04546 15.0941 7.22727 14.5997C7.43905 14.1199 7.50222 13.5876 7.40864 13.0715C7.31507 12.5554 7.06904 12.0792 6.70227 11.7043L6.60682 11.6088C6.31098 11.3133 6.0763 10.9624 5.91617 10.5761C5.75605 10.1898 5.67363 9.7758 5.67363 9.35766C5.67363 8.93952 5.75605 8.52548 5.91617 8.13922C6.0763 7.75295 6.31098 7.40203 6.60682 7.10653C6.90232 6.81069 7.25324 6.57601 7.63951 6.41588C8.02578 6.25576 8.43981 6.17334 8.85795 6.17334C9.27609 6.17334 9.69013 6.25576 10.0764 6.41588C10.4627 6.57601 10.8136 6.81069 11.1091 7.10653L11.2045 7.20198C11.5795 7.56875 12.0557 7.81478 12.5718 7.90835C13.0879 8.00193 13.6202 7.93876 14.1 7.72698H14.2273C14.6978 7.52531 15.0991 7.19046 15.3818 6.76363C15.6645 6.33681 15.8161 5.83664 15.8182 5.32471V5.05425C15.8182 4.21038 16.1534 3.40108 16.7501 2.80437C17.3468 2.20766 18.1561 1.87244 19 1.87244C19.8439 1.87244 20.6532 2.20766 21.2499 2.80437C21.8466 3.40108 22.1818 4.21038 22.1818 5.05425V5.19744C22.1839 5.70937 22.3356 6.20953 22.6182 6.63636C22.9009 7.06318 23.3022 7.39804 23.7727 7.59971C24.2526 7.81148 24.7849 7.87466 25.3009 7.78108C25.817 7.6875 26.2932 7.44147 26.6682 7.07471L26.7636 6.97925C27.0591 6.68342 27.4101 6.44873 27.7963 6.28861C28.1826 6.12849 28.5966 6.04607 29.0148 6.04607C29.4329 6.04607 29.847 6.12849 30.2332 6.28861C30.6195 6.44873 30.9704 6.68342 31.2659 6.97925C31.5617 7.27476 31.7964 7.62568 31.9566 8.01194C32.1167 8.39821 32.1991 8.81225 32.1991 9.23039C32.1991 9.64853 32.1167 10.0626 31.9566 10.4488C31.7964 10.8351 31.5617 11.186 31.2659 11.4815L31.1705 11.577C30.8037 11.9519 30.5577 12.4281 30.4641 12.9442C30.3705 13.4603 30.4337 13.9926 30.6455 14.4724V14.5997C30.8471 15.0703 31.182 15.4716 31.6088 15.7542C32.0356 16.0369 32.5358 16.1886 33.0477 16.1906H33.3182C34.1621 16.1906 34.9714 16.5258 35.5681 17.1226C36.1648 17.7193 36.5 18.5286 36.5 19.3724C36.5 20.2163 36.1648 21.0256 35.5681 21.6223C34.9714 22.219 34.1621 22.5543 33.3182 22.5543H33.175C32.6631 22.5563 32.1629 22.708 31.7361 22.9907C31.3093 23.2733 30.9744 23.6746 30.7727 24.1452Z" stroke="white" stroke-width="2" stroke-linecap="round" stroke-linejoin="round"/>
</svg>