<svg xmlns="http://www.w3.org/2000/svg" width="42" height="42" viewBox="0 0 42 42" fill="none">
  <path d="M38.5 36.75V33.25C38.5 29.9883 36.2691 27.2476 33.25 26.4705M27.125 5.75883C29.6904 6.79726 31.5 9.31229 31.5 12.25C31.5 15.1877 29.6904 17.7027 27.125 18.7412M29.75 36.75C29.75 33.4884 29.75 31.8576 29.2172 30.5712C28.5067 28.856 27.144 27.4933 25.4288 26.7828C24.1424 26.25 22.5116 26.25 19.25 26.25H14C10.7384 26.25 9.10761 26.25 7.82122 26.7828C6.10602 27.4933 4.7433 28.856 4.03284 30.5712C3.5 31.8576 3.5 33.4884 3.5 36.75M23.625 12.25C23.625 16.116 20.491 19.25 16.625 19.25C12.759 19.25 9.625 16.116 9.625 12.25C9.625 8.38401 12.759 5.25 16.625 5.25C20.491 5.25 23.625 8.38401 23.625 12.25Z" stroke="white" stroke-width="2" stroke-linecap="round" stroke-linejoin="round" />
</svg>